PathFileType	4	(X/Y/Z)	c:/Users/goper/Files/vsCode/490R/osim_files/C08/C08_Fast_05.trc
DataRate	CameraRate	NumFrames	NumMarkers	Units                	OrigDataRate	OrigDataStartFrame	OrigNumFrames
250.00	250.00	4	36	mm	250.0	531	2121
                Frame#	Time	LPSIS			LASIS			LTH1			LTH2			LTH3			LTH4			LLFE			LMFE			LSH1			LSH2			LSH3			LSH4			LLMAL			LMMAL			LCAL			LMTP5			LTOE			LMTP1			RPSIS			RASIS			RTH1			RTH2			RTH3			RTH4			RLFE			RMFE			RSH1			RSH2			RSH3			RSH4			RLMAL			RMMAL			RCAL			RMTP1			RTOE			RMTP5		
		X1	Y1	Z1	X2	Y2	Z2	X3	Y3	Z3	X4	Y4	Z4	X5	Y5	Z5	X6	Y6	Z6	X7	Y7	Z7	X8	Y8	Z8	X9	Y9	Z9	X10	Y10	Z10	X11	Y11	Z11	X12	Y12	Z12	X13	Y13	Z13	X14	Y14	Z14	X15	Y15	Z15	X16	Y16	Z16	X17	Y17	Z17	X18	Y18	Z18	X19	Y19	Z19	X20	Y20	Z20	X21	Y21	Z21	X22	Y22	Z22	X23	Y23	Z23	X24	Y24	Z24	X25	Y25	Z25	X26	Y26	Z26	X27	Y27	Z27	X28	Y28	Z28	X29	Y29	Z29	X30	Y30	Z30	X31	Y31	Z31	X32	Y32	Z32	X33	Y33	Z33	X34	Y34	Z34	X35	Y35	Z35	X36	Y36	Z36

531	2.12000	2049.98975	1051.02539	156.69266	1856.43640	1022.97412	16.27382	1903.54102	730.79425	328.52017	1879.09814	652.82404	317.01877	1861.46204	580.75842	315.83762	0.00000	0.00000	0.00000	1857.44714	535.94763	312.90186	0.00000	0.00000	0.00000	1951.60498	490.93008	306.95538	1982.15161	454.81247	303.78299	1910.47668	447.48843	319.37122	1946.56836	419.02371	313.37219	0.00000	0.00000	0.00000	0.00000	0.00000	0.00000	0.00000	0.00000	0.00000	2166.19238	141.01654	269.98566	0.00000	0.00000	0.00000	0.00000	0.00000	0.00000	2045.79419	1052.49939	96.81707	0.00000	0.00000	0.00000	0.00000	0.00000	0.00000	1887.30713	761.61902	-47.15178	0.00000	0.00000	0.00000	0.00000	0.00000	0.00000	0.00000	0.00000	0.00000	1862.93872	528.36298	128.74098	0.00000	0.00000	0.00000	0.00000	0.00000	0.00000	0.00000	0.00000	0.00000	1899.47473	403.95819	-19.47074	0.00000	0.00000	0.00000	1900.01636	111.20815	131.21375	0.00000	0.00000	0.00000	1771.38354	52.19596	121.74823	1753.12976	71.42983	70.23814	1802.56165	52.82811	7.86207
532	2.12400	2044.91760	1051.95435	156.81496	1854.18811	1008.31042	258.48215	1895.74890	732.19324	328.82239	1870.56213	654.28815	317.39841	1852.31079	582.47253	316.24527	0.00000	0.00000	0.00000	1848.72485	538.53424	313.47192	0.00000	0.00000	0.00000	1941.83301	491.57953	307.25696	1971.98767	455.11218	303.91870	1900.28296	448.62427	319.65198	1936.01355	419.81396	313.52179	0.00000	0.00000	0.00000	-1502.45215	741.08154	2791.89331	0.00000	0.00000	0.00000	2152.21606	139.59280	270.46875	2098.76636	103.03696	221.88461	0.00000	0.00000	0.00000	2040.82678	1053.36084	96.96397	1851.69360	1023.82697	15.93666	0.00000	0.00000	0.00000	1880.38257	760.36560	-47.29467	0.00000	0.00000	0.00000	0.00000	0.00000	0.00000	0.00000	0.00000	0.00000	1861.69031	528.53937	128.84575	0.00000	0.00000	0.00000	0.00000	0.00000	0.00000	0.00000	0.00000	0.00000	1898.66333	404.17184	-19.35233	0.00000	0.00000	0.00000	1899.84448	111.33165	131.26105	1985.77087	80.53716	109.18918	1771.33521	52.15263	121.73759	1753.04883	71.36165	70.21445	1802.54553	52.81234	7.85087
533	2.12800	2039.85608	1052.83472	156.96449	1853.30115	1009.14813	257.27448	1887.88635	733.64362	329.08667	1862.12854	655.85425	317.83752	1845.82202	586.29236	318.34784	0.00000	0.00000	0.00000	1839.14026	540.14172	313.76099	0.00000	0.00000	0.00000	1932.12146	492.14575	307.51242	1961.77893	455.31509	304.09793	1890.09644	449.71701	319.81561	1925.44727	420.42389	313.58319	0.00000	0.00000	0.00000	0.00000	0.00000	0.00000	2043.66174	139.23390	116.34657	2137.91382	137.89908	270.96298	0.00000	0.00000	0.00000	0.00000	0.00000	0.00000	2035.84277	1054.16296	97.13531	0.00000	0.00000	0.00000	0.00000	0.00000	0.00000	1876.65479	760.41534	-47.03732	0.00000	0.00000	0.00000	0.00000	0.00000	0.00000	0.00000	0.00000	0.00000	1860.41968	528.73907	128.94026	0.00000	0.00000	0.00000	0.00000	0.00000	0.00000	0.00000	0.00000	0.00000	1897.89648	404.40305	-19.20975	0.00000	0.00000	0.00000	1899.61145	111.08759	131.69084	0.00000	0.00000	0.00000	1771.04321	51.63317	121.85352	1752.94458	71.28802	70.21770	1802.54944	52.80723	7.86633
534	2.13200	2034.82068	1053.65466	157.11699	1848.11401	1010.66425	256.82376	1880.04736	735.10095	329.31656	1853.71594	657.41083	318.28595	1834.12036	585.88586	317.10162	0.00000	0.00000	0.00000	1829.68115	541.83441	314.02805	0.00000	0.00000	0.00000	1922.46289	492.60220	307.77786	0.00000	0.00000	0.00000	1880.80884	451.20834	320.64581	0.00000	0.00000	0.00000	0.00000	0.00000	0.00000	2103.24316	249.75330	152.03838	0.00000	0.00000	0.00000	2125.77832	135.95270	271.49194	0.00000	0.00000	0.00000	0.00000	0.00000	0.00000	2030.85339	1054.90833	97.34277	0.00000	0.00000	0.00000	0.00000	0.00000	0.00000	0.00000	0.00000	0.00000	0.00000	0.00000	0.00000	2159.88135	968.33630	1.71107	0.00000	0.00000	0.00000	1859.14380	528.92224	129.02957	0.00000	0.00000	0.00000	0.00000	0.00000	0.00000	0.00000	0.00000	0.00000	1897.10571	404.61929	-19.06738	0.00000	0.00000	0.00000	1899.41846	111.22184	131.78516	0.00000	0.00000	0.00000	1771.22009	52.04362	121.70453	1752.42725	71.01371	69.73919	1802.14758	52.08823	8.15186
